PathFileType	4	(X/Y/Z)	/Users/itak/Documents/Research/Walk-IL/dataset/trc/00526_00183.trc
DataRate	CameraRate	NumFrames	NumMarkers	Units	OrigDataRate	OrigDataStartFrame	OrigNumFrames
100.000000	100.000000	4	53	mm	100.000000	349	466
Frame#	Time	RPSI			LPSI			L3			STRN			T10			C7			CLAV			RBAK			LBAK			LSHO			LUPA			LAEL			LAOL			LWTS			LFRA			LIFD			LHPS			LHTS			RSHO			RUPA			RAEL			RAOL			RWTS			RWPS			RFRA			RIFD			RHTS			RHPS			RBHD			LFHD			RFHD			LBHD			LHIP			RHIP			RASI			LASI			LKNE			LTHI			LANK			LTIP			LTOE			LMT1			LMT5			LHEE			RKNE			RTHI			RANK			RTIP			RTOE			RMT1			RMT5			RHEE			LWPS			
		X1	Y1	Z1	X2	Y2	Z2	X3	Y3	Z3	X4	Y4	Z4	X5	Y5	Z5	X6	Y6	Z6	X7	Y7	Z7	X8	Y8	Z8	X9	Y9	Z9	X10	Y10	Z10	X11	Y11	Z11	X12	Y12	Z12	X13	Y13	Z13	X14	Y14	Z14	X15	Y15	Z15	X16	Y16	Z16	X17	Y17	Z17	X18	Y18	Z18	X19	Y19	Z19	X20	Y20	Z20	X21	Y21	Z21	X22	Y22	Z22	X23	Y23	Z23	X24	Y24	Z24	X25	Y25	Z25	X26	Y26	Z26	X27	Y27	Z27	X28	Y28	Z28	X29	Y29	Z29	X30	Y30	Z30	X31	Y31	Z31	X32	Y32	Z32	X33	Y33	Z33	X34	Y34	Z34	X35	Y35	Z35	X36	Y36	Z36	X37	Y37	Z37	X38	Y38	Z38	X39	Y39	Z39	X40	Y40	Z40	X41	Y41	Z41	X42	Y42	Z42	X43	Y43	Z43	X44	Y44	Z44	X45	Y45	Z45	X46	Y46	Z46	X47	Y47	Z47	X48	Y48	Z48	X49	Y49	Z49	X50	Y50	Z50	X51	Y51	Z51	X52	Y52	Z52	X53	Y53	Z53	

350	3.49	156.2457580566406	955.5317993164062	325.2647399902344	209.5184478759766	942.7665405273438	213.6223297119141	183.4676513671875	1024.553833007812	264.3372802734375	384.8727111816406	1193.092041015625	344.9319152832031	170.1882476806641	1129.398071289062	263.8475036621094	203.4939117431641	1360.487060546875	277.22802734375	349.1636352539062	1286.944580078125	330.7473754882812	131.1658782958984	1238.257690429688	343.8786926269531	212.1570281982422	1305.6796875	187.8411712646484	325.7135620117188	1354.041870117188	151.4026641845703	335.2419128417969	1228.5771484375	88.97918701171875	353.1393432617188	1019.486145019531	63.66376495361328	262.9908447265625	1009.404907226562	104.6400604248047	431.7829284667969	837.5928955078125	127.9158401489258	371.6295776367188	938.178466796875	67.88115692138672	438.6333923339844	681.0824584960938	142.9211120605469	398.3332214355469	745.7105102539062	77.93374633789062	449.55419921875	759.91748046875	114.0393447875977	203.4598846435547	1358.971069335938	434.5050354003906	167.8105926513672	1294.116577148438	484.9613037109375	162.6568450927734	1031.329345703125	550.5274047851562	129.7318420410156	1007.874084472656	498.01953125	283.400146484375	841.0147705078125	580.698974609375	196.7255249023438	813.9766845703125	594.0569458007812	167.8780822753906	977.6355590820312	563.7799072265625	295.7572021484375	682.8646850585938	602.4534912109375	293.864013671875	751.8592529296875	619.5296630859375	223.9561920166016	743.3845825195312	611.394775390625	206.6947174072266	1517.371215820312	364.7383117675781	380.3042907714844	1579.891357421875	288.0499267578125	325.8638000488281	1575.72900390625	402.8292236328125	261.9443054199219	1517.9208984375	215.3753814697266	370.07470703125	874.109130859375	151.7050018310547	194.7335510253906	865.7999877929688	489.1480407714844	313.6600036621094	912.8934326171875	474.3630065917969	414.3748474121094	917.7681884765625	254.8160095214844	522.5994262695312	492.9998168945312	268.1024475097656	475.246826171875	638.425048828125	220.06884765625	348.4398193359375	103.812744140625	188.4834136962891	474.5093688964844	357.118408203125	237.8050842285156	513.831298828125	48.19501113891602	286.6638488769531	437.8271179199219	61.16158294677734	304.4742431640625	448.0981750488281	67.84947204589844	200.5748443603516	293.0852966308594	111.3214263916016	241.7987823486328	236.8532409667969	473.7424621582031	447.2495727539062	224.5397491455078	733.9157104492188	499.6205139160156	181.5019378662109	46.02045440673828	353.9164428710938	248.0579376220703	328.3463745117188	420.5902404785156	380.2126770019531	38.72306823730469	411.1554870605469	340.1602172851562	46.60269546508789	346.6434631347656	274.5332336425781	37.76279067993164	418.2577209472656	159.8963012695312	40.83305358886719	286.1937866210938	374.6158447265625	798.5050659179688	64.54106903076172	
351	3.5	162.7042999267578	955.0779418945312	328.2974853515625	216.1976013183594	942.3436889648438	216.8802642822266	189.9940338134766	1024.124267578125	267.5344543457031	391.23828125	1192.60400390625	348.7187805175781	176.6602783203125	1128.994262695312	267.0749816894531	209.9855041503906	1360.041015625	280.7242736816406	355.5465087890625	1286.461181640625	334.4847412109375	137.5088806152344	1237.806884765625	347.1421203613281	218.8935699462891	1305.30712890625	191.2811431884766	332.5389099121094	1353.605712890625	155.150390625	342.1509399414062	1228.129150390625	92.76272583007812	359.6498413085938	1019.027221679688	67.4718017578125	269.4893188476562	1009.095458984375	108.4930038452148	437.6512145996094	836.61083984375	131.4030303955078	377.8252563476562	937.5255737304688	71.59586334228516	443.9223022460938	680.0595703125	146.0244445800781	403.6301574707031	744.996826171875	81.32597351074219	455.0616149902344	758.90380859375	117.308464050293	209.6790771484375	1358.4638671875	437.9776916503906	174.0218963623047	1293.614868164062	488.4674682617188	169.8104705810547	1030.95556640625	554.7938232421875	136.9385681152344	1007.111145019531	502.3919677734375	292.2579345703125	841.8635864257812	585.3405151367188	205.9310760498047	814.13671875	599.1155395507812	175.4166564941406	977.3111572265625	568.2385864257812	306.357177734375	684.096435546875	608.18408203125	303.7559814453125	753.1957397460938	624.81640625	233.8932037353516	743.9183349609375	616.8873291015625	213.3674774169922	1517.143798828125	367.9537048339844	386.9091491699219	1579.282104492188	290.8119812011719	332.5376892089844	1575.707641601562	405.6713256835938	268.4606018066406	1516.860961914062	218.5905303955078	376.9563903808594	873.7821655273438	155.3918151855469	200.5196228027344	865.2518920898438	492.2113647460938	319.6517028808594	912.2191772460938	477.9716186523438	420.966064453125	917.4566040039062	258.7055053710938	530.3992919921875	493.7451782226562	272.7791137695312	482.3497924804688	638.5025024414062	223.9945068359375	373.8662109375	95.12841796875	200.7438812255859	487.70166015625	355.1206970214844	244.4932708740234	542.1044921875	49.49428176879883	299.2604370117188	465.6215515136719	59.13021087646484	317.2509765625	475.1239013671875	64.28231811523438	213.1808319091797	318.1513366699219	101.0745468139648	254.2648315429688	239.4977569580078	473.2008361816406	448.7147827148438	229.6253509521484	733.2432250976562	502.3818054199219	181.8232574462891	46.32448959350586	353.5787963867188	249.8584442138672	327.8657531738281	421.2234497070312	380.5879516601562	38.4569206237793	411.1036376953125	340.43701171875	46.27259826660156	346.5426940917969	274.7500610351562	37.82565307617188	418.1527709960938	160.2451324462891	41.15730285644531	285.8913269042969	380.0403747558594	797.9456787109375	68.13730621337891	
352	3.51	169.1761627197266	954.4807739257812	331.268310546875	222.8938598632812	941.7527465820312	220.0649871826172	196.5090637207031	1023.565002441406	270.6473083496094	397.6070556640625	1191.972534179688	352.4848937988281	183.1196899414062	1128.473266601562	270.2170104980469	216.5277557373047	1359.475219726562	284.1539001464844	361.9360656738281	1285.834594726562	338.1977844238281	143.8494110107422	1237.232788085938	350.3145751953125	225.6954040527344	1304.824951171875	194.6474304199219	339.4331970214844	1353.052978515625	158.8776245117188	349.187255859375	1227.579223632812	96.51652526855469	366.33935546875	1018.460571289062	71.26026153564453	276.128173828125	1008.677185058594	112.2407608032227	443.5637817382812	835.448974609375	134.9374237060547	384.1946105957031	936.753173828125	75.29217529296875	449.0829467773438	678.8550415039062	149.1544799804688	408.9684448242188	744.1316528320312	84.69683837890625	460.5862426757812	757.7041015625	120.6321792602539	215.8895263671875	1357.828979492188	441.3884582519531	180.2190246582031	1292.971801757812	491.9026184082031	176.9859771728516	1030.420532226562	558.8931884765625	144.1870422363281	1006.211181640625	506.5790405273438	301.0159301757812	842.5021362304688	589.7798461914062	215.0341339111328	814.1173095703125	603.93359375	182.9421997070312	976.8353271484375	572.5087890625	316.7795104980469	685.1183471679688	613.648193359375	313.4938659667969	754.3091430664062	629.862060546875	243.6818695068359	744.2684326171875	622.1175537109375	220.0420837402344	1516.756713867188	371.1300354003906	393.5213317871094	1578.556030273438	293.5542297363281	339.1953430175781	1575.564453125	408.4782409667969	275.0234069824219	1515.660034179688	221.7785491943359	383.8234252929688	873.2765502929688	159.00927734375	206.3985137939453	864.6310424804688	495.26220703125	325.7361145019531	911.4955444335938	481.4893188476562	427.5630493164062	917.0195922851562	262.4729309082031	537.872802734375	494.1311340332031	277.2254028320312	489.2362365722656	638.2591552734375	227.7965850830078	399.4184875488281	87.05561828613281	212.9158172607422	500.7618103027344	353.0635070800781	251.0329895019531	569.6653442382812	51.31026077270508	312.0417175292969	492.8301696777344	57.77493286132812	330.0486145019531	501.9263610839844	61.22988891601562	225.8608856201172	343.2970275878906	91.60813140869141	266.4860534667969	242.3738861083984	472.6476135253906	450.0591735839844	234.9151611328125	732.50146484375	505.1361389160156	182.1661376953125	46.66454696655273	353.2197875976562	251.8475341796875	327.3483276367188	421.8101501464844	380.9838562011719	38.17538070678711	411.0328369140625	340.7259521484375	45.90713500976562	346.3979797363281	274.9814758300781	37.89604949951172	418.0153503417969	160.608154296875	41.48003768920898	285.5664367675781	385.5857238769531	797.2567138671875	71.67673492431641	
353	3.52	175.6472320556641	953.7333984375	334.1914978027344	229.6222229003906	940.9876098632812	223.1754608154297	203.0183258056641	1022.869995117188	273.6841735839844	403.9764099121094	1191.195556640625	356.2262573242188	189.56884765625	1127.82861328125	273.28125	223.1223449707031	1358.787231445312	287.5179138183594	368.3344116210938	1285.061401367188	341.8849792480469	150.1966247558594	1236.52978515625	353.4012451171875	232.5577392578125	1304.224365234375	197.9446716308594	346.3909912109375	1352.375854492188	162.5778350830078	356.3393859863281	1226.916870117188	100.2361526489258	373.1979064941406	1017.77734375	75.02154541015625	282.8947448730469	1008.136962890625	115.8721466064453	449.524658203125	834.1166381835938	138.51708984375	390.734619140625	935.8560180664062	78.96094512939453	454.1398315429688	677.4791870117188	152.3392181396484	414.3763122558594	743.1133422851562	88.05551910400391	466.1433715820312	756.3273315429688	124.0262832641602	222.0922088623047	1357.065185546875	444.7395324707031	186.4084167480469	1292.182250976562	495.2653198242188	184.1849822998047	1029.720825195312	562.83203125	151.4732208251953	1005.173217773438	510.5946044921875	309.6729125976562	842.9158935546875	594.0241088867188	224.0251617431641	813.9105224609375	608.5189208984375	190.4604644775391	976.2031860351562	576.5977783203125	327.0086669921875	685.9042358398438	618.8275146484375	323.0697326660156	755.1685791015625	634.659423828125	253.3229217529297	744.4133911132812	627.0745239257812	226.7232208251953	1516.209594726562	374.266845703125	400.1477661132812	1577.705444335938	296.2814636230469	345.8440246582031	1575.295532226562	411.2518005371094	281.6461181640625	1514.3212890625	224.9307098388672	390.6891479492188	872.592041015625	162.5648345947266	212.3622741699219	863.9401245117188	498.3156433105469	331.8888549804688	910.7200317382812	484.91748046875	434.1768493652344	916.4564208984375	266.1315307617188	545.0792236328125	494.1661376953125	281.4625244140625	495.9604797363281	637.7117919921875	231.4742584228516	424.9523315429688	79.68032836914062	224.9686737060547	513.697998046875	350.9814453125	257.4420166015625	596.38916015625	53.65669631958008	324.9974670410156	519.31201171875	57.10978317260742	342.8407287597656	528.387939453125	58.75519180297852	238.5959320068359	368.3883666992188	82.99367523193359	278.4175109863281	245.4835510253906	472.077880859375	451.3276062011719	240.4089660644531	731.6934204101562	507.8927307128906	182.5237426757812	47.02266311645508	352.8501586914062	254.0157012939453	326.7945861816406	422.373046875	381.3769836425781	37.89082336425781	410.9526977539062	341.0220642089844	45.52687454223633	346.2183532714844	275.2134704589844	37.97119903564453	417.8566284179688	160.9702606201172	41.80442810058594	285.2301635742188	391.2735290527344	796.4288330078125	75.15632629394531	
